Coordinates
version=1
nRows=17
nColumns=40
inDegrees=yes

Units are S.I. units (second, meters, Newtons, ...)
Angles are in degrees.

endheader
time	pelvis_tilt	pelvis_list	pelvis_rotation	pelvis_tx	pelvis_ty	pelvis_tz	hip_flexion_r	hip_adduction_r	hip_rotation_r	knee_angle_r	knee_angle_r_beta	ankle_angle_r	subtalar_angle_r	mtp_angle_r	hip_flexion_l	hip_adduction_l	hip_rotation_l	knee_angle_l	knee_angle_l_beta	ankle_angle_l	subtalar_angle_l	mtp_angle_l	lumbar_extension	lumbar_bending	lumbar_rotation	arm_flex_r	arm_add_r	arm_rot_r	elbow_flex_r	pro_sup_r	wrist_flex_r	wrist_dev_r	arm_flex_l	arm_add_l	arm_rot_l	elbow_flex_l	pro_sup_l	wrist_flex_l	wrist_dev_l
     54.09628571	     -2.86329195	     -3.48973250	     -2.82251826	      1.09671456	      0.93397568	      0.43362617	     35.59954011	     -6.26462519	     -7.34350439	     57.65479586	     57.65479586	     -1.20638944	    -17.88659242	      5.80424959	      8.61188158	     -3.64492054	    -10.90705237	     18.51659050	     18.51659050	     14.00164579	    -10.40348940	     -3.87406999	    -10.78761490	      5.98859927	      1.55744265	     12.21730214	    -11.92790038	     -2.76682977	     37.33747693	     46.57250736	      0.00000000	      0.00000000	     17.56443016	    -14.70529671	      0.00325109	     50.06676529	     46.50645391	      0.00000000	      0.00000000
     54.10757143	     -2.87176318	     -3.37274090	     -2.97796961	      1.09649947	      0.93388071	      0.43355805	     35.84608694	     -6.26048005	     -7.61692343	     54.62967345	     54.62967345	     -1.26016751	    -17.68636617	      5.35743110	      7.55092159	     -3.47095974	    -11.43251494	     17.72516484	     17.72516484	     14.23230801	     -9.60354597	     -4.25995340	    -10.83597225	      5.93188442	      1.56341592	     11.04347685	    -11.96893079	     -3.35322660	     33.39802284	     46.70167813	      0.00000000	      0.00000000	     18.59099659	    -15.11276568	     -0.67086522	     52.33659285	     46.61382512	      0.00000000	      0.00000000
     54.11885714	     -2.86067582	     -3.29132624	     -3.07278654	      1.09639421	      0.93373604	      0.43351542	     35.88771971	     -6.20381507	     -7.94309927	     51.31802141	     51.31802141	     -1.10064710	    -17.16627749	      5.41578605	      6.44923868	     -3.29903018	    -11.80881430	     16.88536235	     16.88536235	     14.50922708	     -8.90875761	     -4.39634442	    -10.91975682	      5.92167255	      1.89860850	      8.95882562	    -12.41897660	     -3.47578343	     31.52030292	     46.76140063	      0.00000000	      0.00000000	     20.01224108	    -15.23025146	     -1.02865483	     53.95253227	     46.67829954	      0.00000000	      0.00000000
     54.13014286	     -2.93319413	     -3.14381465	     -3.13398808	      1.09639442	      0.93323253	      0.43358924	     35.80978031	     -6.20618002	     -8.30871217	     47.63032765	     47.63032765	     -1.69774238	    -16.65212047	      3.03490514	      5.47280399	     -3.13982350	    -12.53085104	     16.13833720	     16.13833720	     14.76525650	     -7.64943048	     -5.10683415	    -10.86773219	      5.82626087	      1.36327631	      8.39420665	    -12.08758532	     -5.18983829	     26.83556582	     47.03025323	      0.00000000	      0.00000000	     20.27557784	    -16.00841890	     -1.93569392	     57.33564406	     46.81542709	      0.00000000	      0.00000000
     54.14142857	     -2.99485152	     -2.96910903	     -3.16412441	      1.09646898	      0.93271351	      0.43359110	     35.61730522	     -6.21626128	     -8.64398612	     43.83529382	     43.83529382	     -1.53609065	    -15.42323470	      2.82691617	      4.41421585	     -2.85695310	    -12.93041079	     15.22723283	     15.22723283	     15.03601366	     -6.78391118	     -5.26958099	    -10.84668295	      5.71366309	      1.69149067	      6.19757511	    -12.47890436	     -5.62927145	     25.30310927	     47.10346401	      0.00000000	      0.00000000	     21.54883662	    -16.02784791	     -2.39173466	     59.18028793	     46.89118351	      0.00000000	      0.00000000
     54.15271429	     -3.07609352	     -2.83806214	     -3.14361313	      1.09673972	      0.93193181	      0.43374416	     35.16869250	     -6.16272624	     -9.08729428	     39.64462149	     39.64462149	     -1.94792155	    -14.10140961	      0.77158364	      3.43469416	     -2.70398018	    -13.60041386	     14.47250008	     14.47250008	     15.37264397	     -5.43555906	     -5.81289629	    -10.79288494	      5.65511300	      1.32730297	      4.75285259	    -12.45360729	     -7.82353932	     23.09816773	     47.35183536	      0.00000000	      0.00000000	     21.77601009	    -16.57417616	     -3.29294936	     62.58786774	     47.03084067	      0.00000000	      0.00000000
     54.16400000	     -3.20940110	     -2.70551937	     -3.05074435	      1.09710676	      0.93097101	      0.43387771	     34.69006751	     -6.09938859	     -9.53192493	     35.49535291	     35.49535291	     -1.59620889	    -12.19491271	      1.01031854	      2.48918611	     -2.47001913	    -13.78697144	     13.64122669	     13.64122669	     15.67769317	     -4.70499414	     -5.92790586	    -10.59849098	      5.63805849	      1.40194410	      2.54831344	    -12.81321104	     -8.12687201	     22.05755895	     47.40189803	      0.00000000	      0.00000000	     22.88550331	    -16.66105646	     -3.62974631	     64.05580467	     47.08818247	      0.00000000	      0.00000000
     54.17528571	     -3.26544023	     -2.52127771	     -2.94315982	      1.09775201	      0.92985556	      0.43413946	     33.99880656	     -6.08986350	    -10.05569452	     31.33362271	     31.33362271	     -1.18490426	     -9.95465274	      1.30075674	      1.41923316	     -2.19640529	    -14.10722156	     12.77119772	     12.77119772	     16.00823697	     -3.71794824	     -6.15201660	    -10.50460163	      5.51206626	      1.55709196	      0.25001352	    -13.14378979	     -8.55246279	     21.15433203	     47.45822778	      0.00000000	      0.00000000	     23.81508141	    -16.69820199	     -3.98347723	     66.08196129	     47.15482171	      0.00000000	      0.00000000
     54.18657143	     -3.35262871	     -2.33239724	     -2.80442717	      1.09855075	      0.92843519	      0.43456486	     33.24821963	     -6.04681330	    -10.57868946	     27.27534187	     27.27534187	     -0.76470434	     -7.72038154	      1.86687067	      0.41621877	     -1.94456052	    -14.41602393	     11.98386233	     11.98386233	     16.37271626	     -2.71958582	     -6.41473330	    -10.34696811	      5.36535434	      1.60041005	     -2.00241151	    -13.33729825	     -9.04184319	     20.52854474	     47.50939371	      0.00000000	      0.00000000	     24.56348306	    -16.81370895	     -4.33600385	     68.29798617	     47.22375139	      0.00000000	      0.00000000
     54.19785714	     -3.35396714	     -2.05850214	     -2.63652006	      1.09960327	      0.92675264	      0.43510882	     32.54383147	     -6.16314474	    -11.21347386	     23.86633745	     23.86633745	      0.31571695	     -5.14609319	      4.00935369	     -0.58911843	     -1.68979449	    -15.10303803	     11.43061624	     11.43061624	     16.92092364	     -1.07944930	     -6.79644773	    -10.38037106	      5.08769658	      1.14845057	     -4.32006342	    -13.28789325	    -11.60541391	     21.34305755	     47.68478071	      0.00000000	      0.00000000	     24.16512316	    -17.44138011	     -5.24504096	     72.98765349	     47.38896115	      0.00000000	      0.00000000
     54.20914286	     -3.32611477	     -1.86165570	     -2.40259688	      1.10084515	      0.92500823	      0.43577326	     31.68599544	     -6.14129734	    -11.76753916	     20.61145910	     20.61145910	      0.85364862	     -3.35781477	      5.25611613	     -1.65427304	     -1.45427984	    -15.17792037	     10.80662515	     10.80662515	     17.36594207	     -0.31346107	     -6.91303224	    -10.28359608	      4.92698630	      1.31835268	     -6.62417149	    -13.42539520	    -12.23033834	     20.78328404	     47.73990146	      0.00000000	      0.00000000	     24.96522426	    -17.37200916	     -5.54233952	     74.89884099	     47.45538030	      0.00000000	      0.00000000
     54.22042857	     -3.41080023	     -1.65440227	     -2.13136013	      1.10212666	      0.92294552	      0.43656877	     31.16926742	     -6.20866644	    -12.39895805	     18.25259385	     18.25259385	      2.18527104	     -1.62907310	      8.84634796	     -2.43811920	     -1.30950420	    -15.43398620	     10.52066661	     10.52066661	     18.03095040	      0.77341982	     -6.87172591	    -10.11728042	      4.74307532	      1.06751038	     -9.11116709	    -13.32454400	    -14.47021871	     22.04193889	     47.83280315	      0.00000000	      0.00000000	     24.92982513	    -17.74112965	     -5.97224077	     78.17317447	     47.57454106	      0.00000000	      0.00000000
     54.23171429	     -3.46770433	     -1.49917421	     -1.82017604	      1.10356633	      0.92083097	      0.43753361	     30.53863071	     -6.16446055	    -12.82859652	     16.12932892	     16.12932892	      2.36323460	     -0.94906462	      9.61508819	     -3.24363133	     -1.20237648	    -15.29766065	     10.23318812	     10.23318812	     18.49761584	      1.21093300	     -6.96006558	     -9.86275840	      4.60644524	      1.17240291	    -11.19455577	    -13.33070357	    -14.79221971	     21.50735227	     47.85688283	      0.00000000	      0.00000000	     25.59512975	    -17.59648376	     -6.14427393	     79.68289310	     47.62230651	      0.00000000	      0.00000000
     54.24300000	     -3.51449197	     -1.36371779	     -1.49652207	      1.10511194	      0.91869150	      0.43866074	     30.04210697	     -6.16350737	    -13.29346856	     14.75270114	     14.75270114	      2.48983322	     -0.56439741	     10.21700330	     -3.99890226	     -1.16463327	    -15.17719384	     10.08620006	     10.08620006	     19.01012690	      1.66206828	     -6.99705373	     -9.64736482	      4.48227375	      1.29540080	    -13.29000439	    -13.22397158	    -15.17329503	     21.34042088	     47.86825185	      0.00000000	      0.00000000	     26.04788811	    -17.53599608	     -6.29805393	     81.62254060	     47.67695285	      0.00000000	      0.00000000
     54.25428571	     -3.55403673	     -1.27836376	     -1.15328493	      1.10674747	      0.91654012	      0.43998942	     29.73423408	     -6.17879154	    -13.68617997	     14.20739364	     14.20739364	      2.55487242	     -0.67816705	     10.46889449	     -4.61237603	     -1.28452295	    -15.25842237	     10.28515164	     10.28515164	     19.85026993	      2.49307088	     -6.50069858	     -9.53434707	      4.40328833	      1.07831165	    -15.61334199	    -13.05533014	    -16.40974838	     22.98662366	     47.84250551	      0.00000000	      0.00000000	     25.67025951	    -17.88616262	     -6.59419709	     84.92705996	     47.78116917	      0.00000000	      0.00000000
     54.26557143	     -3.63635073	     -1.29780893	     -0.78480162	      1.10837149	      0.91452885	      0.44150727	     29.42550143	     -6.08700967	    -13.97796587	     13.93989697	     13.93989697	      2.12906967	     -1.20838730	     10.05840048	     -5.11225790	     -1.52672254	    -14.96809978	     10.57486217	     10.57486217	     20.43727540	      2.67124661	     -6.33750301	     -9.30690768	      4.41792863	      1.35597666	    -17.46141301	    -12.86239046	    -16.71862721	     22.79392876	     47.84212388	      0.00000000	      0.00000000	     25.93441740	    -17.53203443	     -6.78922853	     86.65842730	     47.83842982	      0.00000000	      0.00000000
     54.27685714	     -3.72170167	     -1.28997175	     -0.43036038	      1.11023976	      0.91252781	      0.44323100	     29.15339438	     -6.02192789	    -14.08632269	     14.00631785	     14.00631785	      0.53239086	     -2.38538390	      6.10890670	     -5.51592304	     -1.83614597	    -15.06126832	     11.14523561	     11.14523561	     21.50476080	      3.42775625	     -5.15194064	     -9.06767019	      4.44072719	      0.99457928	    -19.11264045	    -12.62109600	    -17.61904779	     23.85524923	     47.77897750	      0.00000000	      0.00000000	     25.48438825	    -17.81336961	     -7.35352424	     88.94600652	     47.96446927	      0.00000000	      0.00000000
